<svg xmlns="http://www.w3.org/2000/svg" width="24" height="24" viewBox="0 0 24 24">
    <path fill="#FFF" fill-rule="evenodd" d="M3 12.001a9.005 9.005 0 0 0 6.03 8.5c.473.12.4-.22.4-.448v-1.56c-2.73.32-2.84-1.488-3.024-1.79-.372-.633-1.246-.794-.985-1.095.623-.322 1.256.08 1.99 1.165.53.786 1.564.655 2.092.522.115-.472.361-.893.697-1.222-2.824-.503-4.005-2.23-4.005-4.283 0-.993.328-1.91.973-2.65-.408-1.219.04-2.258.098-2.415 1.168-.106 2.382.836 2.476.91a8.794 8.794 0 0 1 2.27-.275c.852 0 1.613.098 2.281.278.228-.173 1.354-.98 2.44-.881.058.154.496 1.171.112 2.373.652.74.983 1.662.983 2.66 0 2.057-1.186 3.787-4.022 4.286.473.466.767 1.115.767 1.832v2.264c.015.18 0 .362.303.362A9.001 9.001 0 1 0 3 12.002z"/>
</svg>
