<svg xmlns="http://www.w3.org/2000/svg" width="24" height="24" viewBox="0 0 24 24">
    <path fill="#FFF" fill-rule="evenodd" d="M16.082 9.126c.238 0 .474.018.709.044C16.153 6.204 12.982 4 9.362 4 5.315 4 2 6.758 2 10.261c0 2.022 1.103 3.682 2.946 4.97l-.736 2.215 2.573-1.29c.921.182 1.66.369 2.58.369.23 0 .46-.011.686-.03a5.484 5.484 0 0 1-.227-1.542c0-3.216 2.762-5.827 6.26-5.827zM12.123 7.13c.554 0 .922.365.922.92 0 .55-.368.92-.922.92-.552 0-1.105-.37-1.105-.92 0-.555.553-.92 1.105-.92zM6.97 8.97c-.551 0-1.108-.37-1.108-.92 0-.555.557-.92 1.108-.92.552 0 .92.365.92.92 0 .55-.368.92-.92.92zm15.83 5.895c0-2.944-2.945-5.343-6.253-5.343-3.502 0-6.261 2.4-6.261 5.343 0 2.948 2.759 5.342 6.261 5.342.734 0 1.473-.185 2.21-.37l2.019 1.106-.554-1.84c1.478-1.108 2.579-2.578 2.579-4.238zm-8.283-.922c-.366 0-.736-.364-.736-.736 0-.367.37-.737.736-.737.557 0 .922.37.922.737 0 .372-.365.736-.922.736zm4.05 0c-.364 0-.732-.364-.732-.736 0-.367.368-.737.732-.737.552 0 .921.37.921.737 0 .372-.37.736-.921.736z"/>
</svg>
