<svg xmlns="http://www.w3.org/2000/svg" width="24" height="24" viewBox="0 0 24 24">
    <path fill="#FFF" fill-rule="evenodd" d="M16.326 11.165s.755-1.246-.15-2.154c-1.124-1.123-3.853.142-3.853.142-1.044.324-.767-.147-.62-.948 0-.946-.323-2.545-3.1-1.6-2.775.95-5.156 4.276-5.156 4.276-1.657 2.211-1.437 3.92-1.437 3.92.414 3.771 4.422 4.808 7.538 5.053 3.28.257 7.707-1.131 9.049-3.983 1.341-2.855-1.098-3.986-1.875-4.14-.772-.15-.396-.566-.396-.566zm-6.535 7.626c-3.256.15-5.887-1.481-5.887-3.654 0-2.174 2.633-3.918 5.887-4.068 3.256-.15 5.895 1.193 5.895 3.36 0 2.172-2.639 4.211-5.895 4.362zm-.65-6.29c-3.275.383-2.897 3.45-2.897 3.45s-.034.971.878 1.465c1.915 1.037 3.888.41 4.884-.877 1-1.288.414-4.42-2.865-4.039zm-.827 4.303c-.61.073-1.103-.281-1.103-.792s.437-1.042 1.05-1.106c.7-.067 1.158.336 1.158.849 0 .51-.495.98-1.105 1.05zm1.932-1.644c-.208.155-.462.133-.571-.051-.115-.182-.071-.472.137-.624.243-.18.496-.129.605.053.11.183.03.463-.171.622zm8.07-4.757a.53.53 0 0 0 .526-.45.183.183 0 0 0 .009-.057C19.25 6.3 15.904 6.92 15.904 6.92a.536.536 0 0 0-.535.54c0 .295.238.535.535.535 2.403-.531 1.873 1.873 1.873 1.873 0 .298.242.535.54.535zm-.388-7.275c-1.158-.271-2.346-.037-2.681.027-.026.001-.05.027-.074.031-.011.003-.019.014-.019.014a.785.785 0 0 0 .212 1.538s.422-.057.707-.167c.283-.115 2.68-.086 3.871 1.914.649 1.458.284 2.435.24 2.591 0 0-.155.38-.155.753 0 .43.348.701.778.701.361 0 .662-.048.75-.657h.006c1.276-4.261-1.565-6.262-3.635-6.745z"/>
</svg>
